<svg width="40" height="40" viewBox="0 0 40 40" fill="none" xmlns="http://www.w3.org/2000/svg">
<path d="M29.4622 40C32.1138 40 34.2633 37.8505 34.2633 35.1989C34.2633 32.5474 32.1138 30.3978 29.4622 30.3978C26.8107 30.3978 24.6611 32.5474 24.6611 35.1989C24.6611 37.8505 26.8107 40 29.4622 40Z" fill="black"/>
<path d="M29.4623 37.5313C30.7505 37.5313 31.7947 36.487 31.7947 35.1989C31.7947 33.9107 30.7505 32.8665 29.4623 32.8665C28.1741 32.8665 27.1299 33.9107 27.1299 35.1989C27.1299 36.487 28.1741 37.5313 29.4623 37.5313Z" fill="#999999"/>
<path d="M11.3704 11.8246L8.21734 2.49367H0.0532227V0H10.0073L13.7328 11.0259L11.3704 11.8246Z" fill="black"/>
<path d="M14.9801 40C17.6316 40 19.7812 37.8505 19.7812 35.1989C19.7812 32.5474 17.6316 30.3978 14.9801 30.3978C12.3285 30.3978 10.179 32.5474 10.179 35.1989C10.179 37.8505 12.3285 40 14.9801 40Z" fill="black"/>
<path d="M11.5485 27.6229L6.17114 10.3553H39.0607L32.9065 27.6229H11.5485Z" fill="white"/>
<path d="M38.1744 10.9809L32.4658 26.9992H12.0077L7.02034 10.9809H38.1744ZM39.9468 9.73096H5.32227L11.0883 28.2491H33.347L39.9468 9.73096Z" fill="#E21B1B"/>
<path d="M14.9801 37.5313C16.2683 37.5313 17.3126 36.487 17.3126 35.1989C17.3126 33.9107 16.2683 32.8665 14.9801 32.8665C13.692 32.8665 12.6477 33.9107 12.6477 35.1989C12.6477 36.487 13.692 37.5313 14.9801 37.5313Z" fill="#999999"/>
<path d="M24.6604 20.2619C29.3201 20.2619 33.0976 16.4844 33.0976 11.8246C33.0976 7.16487 29.3201 3.38739 24.6604 3.38739C20.0006 3.38739 16.2231 7.16487 16.2231 11.8246C16.2231 16.4844 20.0006 20.2619 24.6604 20.2619Z" fill="#E21B1B"/>
<path d="M28.5278 11.0435H20.7937V12.6059H28.5278V11.0435Z" fill="white"/>
<path d="M25.4436 7.95728H23.8811V15.6914H25.4436V7.95728Z" fill="white"/>
</svg>
