<svg width="35" height="31" viewBox="0 0 35 31" fill="none" xmlns="http://www.w3.org/2000/svg">
<path d="M25.7796 31C28.0997 31 29.9805 29.3341 29.9805 27.2791C29.9805 25.2242 28.0997 23.5583 25.7796 23.5583C23.4594 23.5583 21.5786 25.2242 21.5786 27.2791C21.5786 29.3341 23.4594 31 25.7796 31Z" fill="black"/>
<path d="M25.7796 29.0868C26.9068 29.0868 27.8205 28.2775 27.8205 27.2791C27.8205 26.2808 26.9068 25.4715 25.7796 25.4715C24.6525 25.4715 23.7388 26.2808 23.7388 27.2791C23.7388 28.2775 24.6525 29.0868 25.7796 29.0868Z" fill="#999999"/>
<path d="M9.94889 9.16409L7.18999 1.9326H0.0463867V0H8.75619L12.016 8.54508L9.94889 9.16409Z" fill="black"/>
<path d="M13.1077 31C15.4278 31 17.3087 29.3341 17.3087 27.2791C17.3087 25.2242 15.4278 23.5583 13.1077 23.5583C10.7876 23.5583 8.90674 25.2242 8.90674 27.2791C8.90674 29.3341 10.7876 31 13.1077 31Z" fill="black"/>
<path d="M10.1051 21.4077L5.3999 8.02533H34.1783L28.7934 21.4077H10.1051Z" fill="white"/>
<path d="M33.4028 8.51022L28.4078 20.9244H10.507L6.14304 8.51022H33.4028ZM34.9537 7.5415H4.65723L9.70254 21.8931H29.1789L34.9537 7.5415Z" fill="#E21B1B"/>
<path d="M13.1078 29.0868C14.2349 29.0868 15.1486 28.2775 15.1486 27.2791C15.1486 26.2808 14.2349 25.4715 13.1078 25.4715C11.9806 25.4715 11.0669 26.2808 11.0669 27.2791C11.0669 28.2775 11.9806 29.0868 13.1078 29.0868Z" fill="#999999"/>
<path d="M21.5779 15.703C25.6552 15.703 28.9605 12.7754 28.9605 9.1641C28.9605 5.55279 25.6552 2.62524 21.5779 2.62524C17.5006 2.62524 14.1953 5.55279 14.1953 9.1641C14.1953 12.7754 17.5006 15.703 21.5779 15.703Z" fill="#E21B1B"/>
<path d="M24.1155 6.19446L20.3597 10.297L18.7815 8.91705L17.7402 9.93275L20.4816 12.3289L25.2716 7.09682L24.1155 6.19446Z" fill="white"/>
</svg>
